<?xml version="1.0" standalone="no"?>
<!DOCTYPE svg PUBLIC "-//W3C//DTD SVG 1.1//EN" "http://www.w3.org/Graphics/SVG/1.1/DTD/svg11.dtd" >
<svg xmlns="http://www.w3.org/2000/svg">
<metadata>Generated by IcoMoon</metadata>
<defs>
<font id="icomoon" horiz-adv-x="1024">
<font-face units-per-em="1024" ascent="960" descent="-64" />
<missing-glyph horiz-adv-x="1024" />
<glyph unicode="&#x20;" horiz-adv-x="512" d="" />
<glyph unicode="&#xe600;" glyph-name="Mobile-close-button" d="M1022.293 857.771l-102.229 102.229-408.917-408.917-408.917 408.917-102.229-102.229 408.917-408.917-408.917-408.917 102.229-102.229 408.917 408.917 408.917-408.917 102.229 102.229-408.917 408.917z" />
<glyph unicode="&#xe601;" glyph-name="magnifying-glass2" d="M611.157 349.696c-115.712-115.712-303.957-115.712-419.499 0s-115.541 303.787 0 419.499c115.541 115.541 303.787 115.541 419.499 0 115.712-115.712 115.712-303.957 0-419.499v0zM682.325 840.363c-154.965 154.965-407.040 154.965-562.005 0-154.795-154.965-154.795-407.040 0-562.005 137.899-137.899 352.768-152.747 507.563-45.056 3.243-15.36 10.752-30.208 22.699-42.155l225.621-225.621c32.939-32.768 86.016-32.768 118.784 0s32.768 86.016 0 118.784l-225.451 225.792c-11.947 11.947-26.624 19.456-42.155 22.699 107.691 154.795 93.013 369.664-45.056 507.563v0z" />
<glyph unicode="&#xe602;" glyph-name="trending-flag" d="M0 591.872h928.939l91.648-143.872-91.648-143.872h-928.939z" />
<glyph unicode="&#xe603;" glyph-name="tv" d="M954.539 917.333h-886.272c-37.717 0-68.267-30.72-68.267-68.608v-629.589c0-37.888 30.549-68.608 68.267-68.608h339.968c0 0-59.733-137.387-223.403-137.387v-34.475h635.904v34.304c-168.277 0-206.336 137.387-206.336 137.387h340.139c37.717 0 68.096 30.72 68.096 68.608v629.76c0 37.888-30.379 68.608-68.096 68.608zM73.045 261.803v582.485h876.544v-582.485h-876.544zM258.389 707.243h77.653v-363.861h59.051v363.861h77.653v57.856h-214.357zM658.432 553.643c-4.779-22.357-15.701-74.069-18.603-89.088-3.072 15.019-13.824 67.413-18.603 89.088l-48.811 211.456h-64.512l108.373-421.717h43.861l109.056 421.717h-62.635l-48.128-211.456z" />
<glyph unicode="&#xe604;" glyph-name="menu-light" d="M-1.707 960h1024v-128h-1024v128zM-1.707 512h1024v-128h-1024v128zM-1.707 64h1024v-128h-1024v128z" />
<glyph unicode="&#xe605;" glyph-name="menu-bold" d="M0 809.813h1024v-172.544h-1024v172.544zM0 533.675h1024v-172.544h-1024v172.544zM0 253.44h1024v-172.544h-1024v172.544z" />
<glyph unicode="&#xe606;" glyph-name="instagram" d="M920.235 960h-816.469c-56.149 0-102.059-45.909-102.059-102.059v-816.469c0-56.149 45.909-102.059 102.059-102.059h816.469c56.149 0 102.059 45.909 102.059 102.059v816.469c0 56.149-45.909 102.059-102.059 102.059zM512 653.824c112.299 0 204.117-91.819 204.117-204.117s-91.819-204.117-204.117-204.117-204.117 91.819-204.117 204.117 91.819 204.117 204.117 204.117zM129.365 41.472c-15.36 0-25.6 10.24-25.6 25.6v433.664h107.179c-5.12-15.36-5.12-35.669-5.12-51.029 0-168.448 137.728-306.176 306.176-306.176s306.176 137.728 306.176 306.176c0 15.36 0 35.669-5.12 51.029h107.179v-433.664c0-15.36-10.24-25.6-25.6-25.6h-765.269zM920.235 730.283c0-15.36-10.24-25.429-25.6-25.429h-102.059c-15.36 0-25.6 10.24-25.6 25.429v102.059c0 15.36 10.24 25.6 25.6 25.6h102.059c15.36 0 25.6-10.24 25.6-25.6v-102.059z" />
<glyph unicode="&#xe607;" glyph-name="tumblr" d="M853.333 960h-682.667c-93.867 0-170.667-76.8-170.667-170.667v-682.667c0-93.867 76.8-170.667 170.667-170.667h682.667c93.867 0 170.667 76.8 170.667 170.667v682.667c0 93.867-76.8 170.667-170.667 170.667zM731.648 135.339c-30.208-14.165-57.515-24.235-81.92-29.867-24.576-5.632-51.029-8.533-79.36-8.533-32.256 0-51.371 4.096-76.117 12.117-24.747 8.192-46.080 19.797-63.488 34.816-17.579 15.189-29.696 31.232-36.523 48.128-6.827 17.067-10.24 41.643-10.24 74.069v247.808h-95.915v100.011c27.819 9.045 59.904 22.016 79.701 38.741 19.797 16.896 35.669 37.035 47.616 60.757 11.947 23.552 20.309 53.589 24.747 90.112h100.523v-163.499h163.328v-126.123h-163.328v-181.248c0-40.96-0.512-64.683 3.755-76.288s15.189-23.552 26.965-30.549c15.701-9.387 33.451-13.995 53.589-13.995 35.84 0 71.339 11.605 106.837 34.816l-0.171-111.275z" />
<glyph unicode="&#xe608;" glyph-name="Desktop-close-button" d="M667.136 449.707l343.893 343.723c8.192 8.192 8.192 21.675 0 29.867l-126.976 127.147c-3.925 3.925-9.387 6.144-15.019 6.144s-10.923-2.219-15.019-6.144l-343.723-343.893-343.723 343.893c-8.021 7.851-22.016 7.851-30.037 0l-126.976-127.147c-8.192-8.192-8.192-21.675 0-29.867l343.893-343.723-343.893-343.723c-8.192-8.192-8.192-21.675 0-29.867l126.976-127.147c3.925-3.925 9.387-6.144 15.019-6.144s10.923 2.219 15.019 6.144l343.723 343.893 343.723-343.723c3.925-3.925 9.387-6.144 15.019-6.144s10.923 2.219 15.019 6.144l126.976 126.976c8.192 8.192 8.192 21.675 0 29.867l-343.893 343.723z" />
<glyph unicode="&#xe609;" glyph-name="arrow-left" horiz-adv-x="791" d="M501.786 743.952l-34.78 19.523-177.519-316.38 177.519-316.38 34.78 19.523-166.529 296.857z" />
<glyph unicode="&#xe60a;" glyph-name="arrow-right" horiz-adv-x="791" d="M289.487 743.952l34.909 19.523 177.39-316.38-177.39-316.38-34.909 19.523 166.529 296.857z" />
<glyph unicode="&#xe60b;" glyph-name="close-X" d="M633.703 448l365.094 365.094c33.607 33.607 33.607 88.095 0 121.698-33.607 33.607-88.091 33.607-121.698 0l-365.099-365.099-365.099 365.104c-33.607 33.607-88.091 33.607-121.698 0-33.603-33.607-33.603-88.095 0-121.698l365.099-365.094-365.099-365.099c-33.603-33.607-33.603-88.095 0-121.698 33.607-33.607 88.091-33.607 121.698 0l365.099 365.099 365.099-365.099c33.603-33.607 88.091-33.607 121.698 0s33.607 88.091 0 121.698l-365.094 365.094z" />
<glyph unicode="&#xe60c;" glyph-name="minus-alternative" d="M61.438 386.554h901.124c33.939 0 61.446 27.508 61.446 61.455 0 33.939-27.499 61.446-61.446 61.446h-901.124c-33.93-0.008-61.438-27.516-61.438-61.455s27.508-61.446 61.438-61.446z" />
<glyph unicode="&#xe60d;" glyph-name="minus" d="M0 479.008h1024v-62.016h-1024v62.016z" />
<glyph unicode="&#xe60e;" glyph-name="plus-alternative" d="M959.998 511.998h-384v384c0 35.346-28.652 63.998-63.998 63.998s-63.998-28.652-63.998-63.998v-383.996h-383.996c-35.346 0-64.005-28.652-64.005-63.998s28.659-63.998 64.005-63.998h383.996v-383.996c0-35.346 28.652-63.998 63.998-63.998s63.998 28.652 63.998 63.998v383.996h384c35.346 0 63.998 28.656 63.998 63.998 0.004 35.342-28.652 63.995-63.998 63.995z" />
<glyph unicode="&#xe60f;" glyph-name="plus" d="M1024 479.97h-480.015v479.535h-63.938v-479.535h-480.047v-63.94h480.047v-479.535h63.938v479.535h480.015z" />
<glyph unicode="&#xe610;" glyph-name="twitter" d="M1024.064 765.568c-37.696-16.704-78.144-28.032-120.64-33.088 43.392 25.984 76.608 67.2 92.352 116.16-40.64-24.064-85.632-41.536-133.504-51.008-38.272 40.896-92.864 66.368-153.28 66.368-116.032 0-210.112-94.080-210.112-210.048 0-16.448 1.856-32.512 5.44-47.872-174.592 8.768-329.408 92.416-433.024 219.52-18.112-30.976-28.416-67.072-28.416-105.6 0-72.896 37.12-137.216 93.44-174.848-34.432 1.152-66.816 10.624-95.168 26.368v-2.624c0-101.76 72.448-186.688 168.512-206.016-17.6-4.736-36.16-7.36-55.36-7.36-13.568 0-26.688 1.344-39.552 3.84 26.752-83.456 104.32-144.192 196.224-145.92-71.872-56.32-162.496-89.856-260.928-89.856-16.96 0-33.664 1.024-50.112 2.88 92.992-59.648 203.392-94.464 322.048-94.464 386.432 0 597.76 320.128 597.76 597.76l-0.704 27.2c41.216 29.504 76.928 66.496 105.024 108.608z" />
<glyph unicode="&#xe611;" glyph-name="paperplane" d="M1009.376 954.88c-5.312 3.424-11.36 5.12-17.376 5.12-6.176 0-12.384-1.76-17.76-5.376l-960-640c-9.888-6.56-15.328-18.112-14.048-29.952 1.216-11.808 8.896-22.016 19.936-26.368l250.368-100.192 117.728-206.016c5.632-9.888 16.096-16 27.424-16.128 0.128 0 0.224 0 0.352 0 11.232 0 21.664 5.952 27.424 15.552l66.464 110.816 310.24-124.064c3.808-1.536 7.808-2.272 11.872-2.272 5.44 0 10.816 1.376 15.68 4.128 8.448 4.736 14.24 13.056 15.872 22.624l160 960c2.080 12.576-3.488 25.184-14.176 32.128zM100.352 295.136l741.6 494.432-539.2-577.184c-2.848 1.696-5.376 3.936-8.512 5.184l-193.888 77.568zM326.048 189.888c-0.064 0.128-0.16 0.192-0.224 0.32l606.176 648.8-516.768-805.184-89.184 156.064zM806.944 12.512l-273.312 109.312c-6.496 2.56-13.248 3.424-19.936 3.808l420.864 652.416-127.616-765.536z" />
<glyph unicode="&#xe612;" glyph-name="close-X2" d="M605.996 448l282.117 282.117c25.988 25.988 25.988 68.137 0 93.996-25.988 25.988-68.008 25.988-93.996 0l-282.117-282.117-282.117 282.117c-25.988 25.988-68.137 25.988-93.996 0-25.988-25.988-25.988-68.137 0-93.996l282.117-282.117-282.117-282.117c-25.988-25.988-25.988-68.137 0-93.996 25.988-25.988 68.008-25.988 93.996 0l282.117 282.117 282.117-282.117c25.988-25.988 68.008-25.988 93.996 0s25.988 68.008 0 93.996l-282.117 282.117z" />
<glyph unicode="&#xe613;" glyph-name="arrow" d="M1010.517 448.341l-129.365 127.488v-106.837h-868.181v-41.301h868.181v-106.667z" />
<glyph unicode="&#xe614;" glyph-name="slideshow-launch" d="M99.499 832.853v-687.616h911.019v687.616h-911.019zM966.997 188.245h-824.149v601.771h824.149v-601.771zM12.971 62.635h911.019v43.008h-867.499v644.608h-43.52z" />
<glyph unicode="&#xe615;" glyph-name="facebook" d="M758.047 939.95l-127.652 0.205c-143.401 0-236.063-95.078-236.063-242.237v-111.688h-128.348c-11.090 0-20.070-8.991-20.070-20.081v-161.823c0-11.090 8.991-20.070 20.070-20.070h128.338v-408.33c0-11.090 8.98-20.070 20.070-20.070h167.444c11.090 0 20.070 8.991 20.070 20.070v408.33h150.057c11.090 0 20.070 8.98 20.070 20.070l0.061 161.823c0 5.325-2.12 10.424-5.878 14.193-3.768 3.768-8.878 5.888-14.203 5.888h-150.098v94.679c0 45.507 10.844 68.608 70.113 68.608l85.996 0.031c11.080 0 20.060 8.991 20.060 20.070v150.262c0 11.069-8.97 20.050-20.040 20.070z" />
<glyph unicode="&#xe616;" glyph-name="pinterest" horiz-adv-x="1004" d="M887.5 680.915c-27.35 198.351-225.074 299.346-435.972 275.697-166.736-18.693-332.969-153.5-339.87-346.268-4.203-117.681 29.169-206.004 141.142-230.783 48.49 85.814-15.62 104.57-25.656 166.736-41.088 254.055 293.073 427.566 468.089 250.041 121.131-122.95 41.339-500.96-153.876-461.628-186.997 37.512 91.585 338.427-57.649 397.456-121.319 48.051-185.743-146.788-128.22-243.642-33.749-166.547-106.39-323.372-76.969-532.199 95.349 69.191 127.53 201.676 153.876 339.87 47.926-29.169 73.582-59.405 134.681-64.11 225.388-17.439 351.349 225.012 320.423 448.831z" />
<glyph unicode="&#xe617;" glyph-name="tumblr18" d="M748.667 155.515c-14.275-3.133-170.957-70.083-170.957 93.020-0.307 61.553-0.061 123.105-0.072 184.658 0 27.146 0 59.955 0 91.679 65.618 0 125.194 0 183.634 0v158.351c-61.737 0-120.166 0-182.641 0 0 82.309 0 166.676 0 250.941-28.826 0-156.129 0-156.129 0s-1.085-27.638-11.203-68.372c-26.388-93.512-98.048-181.77-181.074-205.425 0-47.749 0-89.856 0-137.605 37.376 0 68.362 0 109.896 0l-0.082-294.605c0-363.745 414.689-262.892 453.724-221.583l-45.097 148.941z" />
<glyph unicode="&#xe618;" glyph-name="googleplus" d="M961.526 764.805h-102.052c-11.315 0-20.48 9.165-20.48 20.48v102.052c0 11.315-9.165 20.48-20.48 20.48h-30.546c-11.315 0-20.48-9.165-20.48-20.48v-102.052c0-11.315-9.165-20.48-20.48-20.48h-102.052c-11.315 0-20.48-9.165-20.48-20.48v-30.546c0-11.315 9.165-20.48 20.48-20.48h102.052c11.315 0 20.48-9.165 20.48-20.48v-102.052c0-11.315 9.165-20.48 20.48-20.48h30.546c11.315 0 20.48 9.165 20.48 20.48v102.052c0 11.315 9.165 20.48 20.48 20.48h102.052c11.315 0 20.48 9.165 20.48 20.48v30.546c0 11.315-9.165 20.48-20.48 20.48zM112.22 34.959c17.5-12.851 37.704-23.644 60.611-32.41 22.907-8.735 45.619-14.981 68.147-18.708 22.528-3.717 44.78-5.591 66.755-5.591 99.799 0 178.012 24.392 234.629 73.175 52.132 45.445 78.213 97.946 78.213 157.532 0 21.217-3.072 41.062-9.216 59.494s-14.162 34.263-24.023 47.483c-9.871 13.21-20.767 25.498-32.676 36.864-11.919 11.356-23.839 21.688-35.748 30.996-11.919 9.308-22.815 18.237-32.676 26.819-9.871 8.561-17.879 17.5-24.023 26.819-6.144 9.298-9.216 18.801-9.216 28.488 0 13.414 4.28 25.979 12.851 37.704 8.561 11.725 18.995 23.091 31.283 34.079 12.288 10.977 24.576 22.989 36.874 36.024 12.288 13.036 22.712 30.259 31.283 51.671 8.561 21.422 12.851 45.906 12.851 73.462 0 32.768-7.26 64.246-21.791 94.413-11.336 23.542-26.296 42.998-44.882 58.368-8.714 7.209-7.393 12.022 3.912 12.022h34.458c11.315 0 28.396 4.628 38.154 10.342l40.069 23.45c9.759 5.714 8.509 10.342-2.806 10.342h-223.642c-34.632 0-69.468-3.727-104.468-11.172-51.773-11.54-95.334-37.908-130.714-79.053-35.389-41.155-53.074-87.798-53.074-139.93 0-55.122 19.835-100.936 59.494-137.431s87.235-54.743 142.725-54.743c6.001 0 12.524 0.266 19.589 0.799 10.803 0.819 18.801-0.748 17.705-4.065-0.594-1.792-1.3-3.779-2.109-5.96-1.864-5.028-3.348-9.032-4.465-12.012s-2.048-6.615-2.796-10.885c-0.758-4.291-1.116-8.663-1.116-13.128 0-20.081 7.946-42.271 23.859-66.58 6.195-9.462 2.724-16.876-8.561-17.51-21.33-1.219-42.435-3.441-63.334-6.687-27.566-4.291-56.422-10.998-86.589-20.122s-57.17-22.344-80.998-39.66c-23.839-17.316-41.718-37.898-53.627-61.727-13.783-27.576-20.664-52.705-20.664-75.407 0-24.965 5.591-47.575 16.763-67.881 11.151-20.265 25.477-36.833 42.988-49.684zM317.798 533.535c-17.132 9.677-31.662 22.252-43.571 37.704-11.919 15.452-22.344 32.86-31.283 52.234-8.94 19.364-15.555 38.738-19.835 58.102-4.28 19.354-6.42 37.796-6.42 55.306 0 35.758 9.503 66.478 28.488 92.17 18.995 25.692 45.804 38.543 80.445 38.543 24.576 0 46.828-7.639 66.755-22.917 19.917-15.278 35.553-34.632 46.92-58.092 11.356-23.47 20.111-47.77 26.255-72.909s9.216-48.876 9.216-71.229c0-28.242-4.659-52.244-13.967-72.018-4.813-10.23-15.544-25.405-24.381-32.451-15.882-12.657-37.366-18.985-64.44-18.985-18.985 0.010-37.059 4.844-54.18 14.541zM170.875 238.008c10.056 17.5 22.907 31.468 38.543 41.902 15.636 10.424 33.884 18.995 54.743 25.692 20.849 6.707 40.96 11.356 60.334 13.967 19.364 2.611 39.107 3.922 59.218 3.922 5.202 0 9.861-0.072 13.988-0.205 7.721-0.256 17.777-3.512 22.477-6.758 2.386-1.649 5.222-3.615 8.509-5.888 9.124-6.339 15.268-10.619 18.432-12.841 3.154-2.232 8.94-6.523 17.316-12.851 8.376-6.339 14.336-11.090 17.879-14.254 3.533-3.164 8.663-7.916 15.36-14.244 6.707-6.339 11.633-11.827 14.807-16.486 3.154-4.659 7.066-10.332 11.735-17.029 4.649-6.707 7.905-13.128 9.779-19.282 1.853-6.144 3.635-12.841 5.304-20.111 1.679-7.26 2.519-14.807 2.519-22.61 0-23.47-5.13-43.95-15.36-61.45-10.25-17.5-24.115-31.191-41.615-41.073-17.51-9.861-36.219-17.121-56.146-21.78s-40.878-6.984-62.843-6.984c-23.839 0-47.483 2.796-70.943 8.376-23.46 5.591-45.906 14.049-67.308 25.416-21.422 11.366-38.738 27.003-51.958 46.93s-19.835 42.537-19.835 67.871c-0.020 22.354 5.007 42.26 15.063 59.771z" />
<glyph unicode="&#xe619;" glyph-name="instagram2" d="M894.89 960h-765.761c-71.309 0-129.129-57.82-129.129-129.11v-765.742c0-71.309 57.82-129.129 129.129-129.129h765.761c71.27 0 129.091 57.82 129.091 129.129v765.742c0.019 71.289-57.801 129.11-129.091 129.11zM512 598.028c82.739 0 150.028-67.308 150.028-150.028 0-82.739-67.289-150.028-150.028-150.028-82.72 0-150.028 67.289-150.028 150.028 0 82.72 67.308 150.028 150.028 150.028zM904.93 119.71c0-35.645-33.168-64.641-68.832-64.641h-645.682c-35.683 0-71.347 28.977-71.347 64.641v322.841c0 35.645 35.664 64.984 71.347 64.984h35.988c6.782 0 13.241-2.934 17.737-8.021 4.477-5.106 6.573-11.907 5.696-18.632-1.41-10.764-2.172-21.737-2.172-32.882 0-145.741 118.574-264.335 264.335-264.335 145.741 0 264.335 118.593 264.335 264.335 0 11.145-0.762 22.118-2.153 32.882-0.895 6.744 1.181 13.526 5.658 18.651 4.496 5.106 10.954 8.021 17.775 8.021h38.502c35.664 0 68.832-29.339 68.832-65.003v-322.841zM904.949 715.002v0c-0.019-35.664-28.939-64.583-64.583-64.583h-61.364c-35.683 0-64.602 28.92-64.602 64.583v61.364c0 35.645 28.92 64.564 64.602 64.564h61.364c35.645 0 64.583-28.92 64.583-64.564v-61.364z" />
<glyph unicode="&#xe61a;" glyph-name="youtube18" d="M777.626 234.68h-50.586l0.236 29.379c0 13.056 10.721 23.736 23.828 23.736h3.226c13.128 0 23.88-10.68 23.88-23.736l-0.584-29.379zM587.909 297.636c-12.831 0-23.327-8.622-23.327-19.18v-142.879c0-10.537 10.496-19.139 23.327-19.139 12.882 0 23.388 8.602 23.388 19.139v142.879c0 10.568-10.506 19.18-23.388 19.18zM896 377.559v-271.811c0-65.198-56.545-118.548-125.645-118.548h-516.7c-69.13 0-125.655 53.35-125.655 118.548v271.811c0 65.198 56.525 118.559 125.655 118.559h516.7c69.1 0 125.645-53.361 125.645-118.559zM288.123 76.237l-0.041 286.321 64.051-0.020v42.424l-170.742 0.256v-41.708l53.299-0.154v-287.119h53.432zM480.123 319.908h-53.402v-152.893c0-22.118 1.341-33.178-0.082-37.079-4.342-11.858-23.859-24.443-31.468-1.28-1.29 4.055-0.154 16.292-0.174 37.304l-0.215 153.948h-53.105l0.164-151.521c0.041-23.224-0.522-40.55 0.184-48.425 1.3-13.896 0.84-30.106 13.732-39.352 24.023-17.316 70.072 2.58 81.592 27.32l-0.102-31.57 42.885-0.051v243.599zM650.957 144.824l-0.113 127.252c-0.041 48.497-36.321 77.548-85.576 38.308l0.215 94.607-53.35-0.082-0.256-326.554 43.858 0.645 3.994 20.337c56.074-51.436 91.31-16.2 91.228 45.486zM818.084 161.69l-40.049-0.215c-0.020-1.587-0.072-3.42-0.092-5.417v-22.344c0-11.95-9.882-21.688-21.883-21.688h-7.844c-12.022 0-21.893 9.738-21.893 21.688v58.767h91.689v34.509c0 25.221-0.645 50.432-2.734 64.85-6.554 45.609-70.574 52.849-102.912 29.501-10.158-7.291-17.91-17.050-22.415-30.167-4.557-13.117-6.81-31.037-6.81-53.801v-75.868c0.010-126.136 153.221-108.308 134.943 0.184zM612.69 573.624c2.755-6.697 7.035-12.124 12.841-16.22 5.734-4.035 13.076-6.062 21.852-6.062 7.7 0 14.52 2.079 20.46 6.369 5.919 4.27 10.906 10.65 14.971 19.159l-1.004-20.951h59.525v253.143h-46.858v-197.018c0-10.67-8.786-19.405-19.528-19.405-10.68 0-19.497 8.735-19.497 19.405v197.018h-48.906v-170.742c0-21.75 0.389-36.25 1.034-43.602 0.686-7.301 2.355-14.305 5.11-21.094zM432.302 716.595c0 24.3 2.028 43.274 6.052 56.955 4.055 13.629 11.336 24.586 21.883 32.85 10.516 8.305 23.982 12.462 40.356 12.462 13.773 0 25.569-2.703 35.43-7.997 9.902-5.325 17.531-12.237 22.835-20.767 5.396-8.561 9.062-17.357 11.018-26.358 1.997-9.124 2.98-22.886 2.98-41.452v-64.020c0-23.48-0.942-40.755-2.765-51.722-1.812-10.998-5.704-21.197-11.725-30.761-5.949-9.462-13.619-16.538-22.917-21.053-9.4-4.557-20.152-6.789-32.297-6.789-13.568 0-24.996 1.874-34.417 5.786-9.452 3.891-16.753 9.759-21.955 17.551-5.253 7.803-8.95 17.306-11.182 28.385-2.243 11.069-3.308 27.72-3.308 49.91v67.021zM478.925 616.038c0-14.336 10.67-26.040 23.665-26.040 13.005 0 23.624 11.704 23.624 26.040v134.758c0 14.316-10.619 26.020-23.624 26.020-12.995 0-23.665-11.704-23.665-26.020v-134.758zM314.184 547.994h56.156l0.061 194.15 66.355 166.318h-61.42l-35.277-123.535-35.779 123.873h-60.785l70.595-166.748 0.092-194.058z" />
<glyph unicode="&#xe61b;" glyph-name="email20" d="M119.060 719.749v-552.192h833.034v552.192h-833.034zM535.583 378.747l-341.678 300.042h683.346l-341.668-300.042zM399.473 443.75l-239.452-210.278v420.557l239.452-210.278zM430.51 416.492l105.062-92.262 105.062 92.262 236.831-207.974h-683.776l236.82 207.974zM671.672 443.74l239.462 210.289v-420.557l-239.462 210.268z" />
<glyph unicode="&#xe61c;" glyph-name="email21" d="M535.583 378.747l-341.678 300.042h683.346zM399.473 443.75l-239.452-210.278v420.557zM430.51 416.492l105.073-92.262 105.052 92.262 236.831-207.974h-683.776zM671.672 443.74l239.462 210.289v-420.557z" />
<glyph unicode="&#xe61d;" glyph-name="stumbleupon2" d="M512 960c-282.77 0-512-229.23-512-512s229.23-512 512-512 512 229.23 512 512-229.23 512-512 512zM512 704c-35.29 0-64-28.71-64-64v-256c0-105.87-86.13-192-192-192s-192 86.13-192 192v128h128v-128c0-35.29 28.71-64 64-64s64 28.71 64 64v256c0 105.87 86.13 192 192 192s192-86.13 192-178v-62l-82-24-46 24v62c0 21.29-28.71 50-64 50zM768 192c-105.87 0-192 86.13-192 206v124l46-24 82 24v-124c0-49.29 28.71-78 64-78s64 28.71 64 64v128h128v-128c0-105.87-86.13-192-192-192z" />
<glyph unicode="&#xe61e;" glyph-name="like" d="M933.248 624.896c-40 10.496-134.048 10.368-271.616 14.016 6.496 30.016 8 57.088 8 105.152 0 114.816-83.648 215.936-157.632 215.936-52.256 0-95.328-42.72-96-95.264-0.704-64.448-20.64-175.744-128-232.192-7.872-4.16-30.4-15.264-33.696-16.704l1.696-1.44c-16.8 14.496-40.096 25.6-64 25.6h-96c-52.928 0-96-43.072-96-96v-512c0-52.928 43.072-96 96-96h96c38.080 0 69.952 23.008 85.376 55.264 0.384-0.128 1.056-0.32 1.504-0.384 2.112-0.576 4.608-1.184 7.648-1.984 0.576-0.16 0.864-0.224 1.472-0.384 18.432-4.576 53.92-13.056 129.76-30.496 16.256-3.712 102.144-22.016 191.104-22.016h174.944c53.312 0 91.744 20.512 114.624 61.696 0.32 0.64 7.68 15.008 13.696 34.432 4.512 14.624 6.176 35.328 0.736 56.32 34.368 23.616 45.44 59.328 52.64 82.56 12.064 38.112 8.448 66.752 0.064 87.264 19.328 18.24 35.808 46.048 42.752 88.512 4.32 26.304-0.32 53.376-12.448 75.904 18.112 20.352 26.368 45.952 27.328 69.632l0.384 6.688c0.224 4.192 0.416 6.784 0.416 16 0 40.416-28 91.968-90.752 109.888zM224 32c0-17.696-14.304-32-32-32h-96c-17.696 0-32 14.304-32 32v512c0 17.696 14.304 32 32 32h96c17.696 0 32-14.304 32-32v-512zM959.264 494.88c-0.64-15.808-7.264-46.88-63.264-46.88-48 0-64 0-64 0-8.864 0-16-7.168-16-16s7.136-16 16-16c0 0 14.016 0 62.016 0s54.304-39.808 51.2-59.008c-3.968-23.872-15.168-68.992-69.216-68.992-53.984 0-76 0-76 0-8.864 0-16-7.136-16-16 0-8.8 7.136-16 16-16 0 0 38.016 0 63.008 0 54.016 0 49.248-41.184 41.504-65.76-10.208-32.288-16.448-62.24-84.512-62.24-23.008 0-52.192 0-52.192 0-8.864 0-16-7.136-16-16 0-8.8 7.136-16 16-16 0 0 22.176 0 50.176 0 35.008 0 36.64-33.12 32.992-44.992-4-12.992-8.736-22.624-8.928-23.072-9.664-17.44-25.248-27.936-58.24-27.936h-174.944c-87.872 0-175.040 19.936-177.28 20.448-132.928 30.624-139.936 32.992-148.288 35.36 0 0-27.072 4.576-27.072 28.192l-0.224 441.984c0 15.008 9.568 28.576 25.408 33.344 1.984 0.768 4.672 1.6 6.592 2.4 146.176 60.544 190.688 193.28 192 302.272 0.192 15.328 12 32 32 32 33.824 0 93.632-67.904 93.632-151.936 0-75.872-3.072-88.992-29.632-168.064 320 0 317.76-4.608 345.984-12 35.008-10.016 38.016-39.008 38.016-48.992 0-10.976-0.32-9.376-0.736-20.128zM144 128c-26.496 0-48-21.504-48-48s21.504-48 48-48 48 21.504 48 48-21.504 48-48 48zM144 64c-8.8 0-16 7.2-16 16s7.2 16 16 16 16-7.2 16-16-7.2-16-16-16z" />
<glyph unicode="&#xe61f;" glyph-name="whatsapp" horiz-adv-x="878" d="M562.857 394.286q7.429 0 55.714-25.143t51.143-30.286q1.143-2.857 1.143-8.571 0-18.857-9.714-43.429-9.143-22.286-40.571-37.429t-58.286-15.143q-32.571 0-108.571 35.429-56 25.714-97.143 67.429t-84.571 105.714q-41.143 61.143-40.571 110.857v4.571q1.714 52 42.286 90.286 13.714 12.571 29.714 12.571 3.429 0 10.286-0.857t10.857-0.857q10.857 0 15.143-3.714t8.857-15.714q4.571-11.429 18.857-50.286t14.286-42.857q0-12-19.714-32.857t-19.714-26.571q0-4 2.857-8.571 19.429-41.714 58.286-78.286 32-30.286 86.286-57.714 6.857-4 12.571-4 8.571 0 30.857 27.714t29.714 27.714zM446.857 91.428q72.571 0 139.143 28.571t114.571 76.571 76.571 114.571 28.571 139.143-28.571 139.143-76.571 114.571-114.571 76.571-139.143 28.571-139.143-28.571-114.571-76.571-76.571-114.571-28.571-139.143q0-116 68.571-210.286l-45.143-133.143 138.286 44q90.286-59.429 197.143-59.429zM446.857 881.143q87.429 0 167.143-34.286t137.429-92 92-137.429 34.286-167.143-34.286-167.143-92-137.429-137.429-92-167.143-34.286q-111.429 0-208.571 53.714l-238.286-76.571 77.714 231.429q-61.714 101.714-61.714 222.286 0 87.429 34.286 167.143t92 137.429 137.429 92 167.143 34.286z" />
<glyph unicode="&#xe620;" glyph-name="playvideo" d="M78.726-64v1024l866.549-512.026-866.549-511.974zM128.098 873.472v-850.972l720.11 425.474-720.11 425.498z" />
<glyph unicode="&#xe916;" glyph-name="pacman" d="M964.73 781.196c-93.902 109.45-233.21 178.804-388.73 178.804-282.77 0-512-229.23-512-512s229.23-512 512-512c155.52 0 294.828 69.356 388.728 178.804l-324.728 333.196 324.73 333.196zM704 839.398c39.432 0 71.398-31.964 71.398-71.398 0-39.432-31.966-71.398-71.398-71.398s-71.398 31.966-71.398 71.398c0 39.432 31.966 71.398 71.398 71.398z" />
<glyph unicode="&#xe958;" glyph-name="mobile" d="M736 960h-448c-52.8 0-96-43.2-96-96v-832c0-52.8 43.2-96 96-96h448c52.8 0 96 43.2 96 96v832c0 52.8-43.2 96-96 96zM384 912h256v-32h-256v32zM512 0c-35.346 0-64 28.654-64 64s28.654 64 64 64 64-28.654 64-64-28.654-64-64-64zM768 192h-512v640h512v-640z" />
<glyph unicode="&#xe97b;" glyph-name="spinner2" d="M1024 448c-1.278 66.862-15.784 133.516-42.576 194.462-26.704 61-65.462 116.258-113.042 161.92-47.552 45.696-103.944 81.82-164.984 105.652-61.004 23.924-126.596 35.352-191.398 33.966-64.81-1.282-129.332-15.374-188.334-41.356-59.048-25.896-112.542-63.47-156.734-109.576-44.224-46.082-79.16-100.708-102.186-159.798-23.114-59.062-34.128-122.52-32.746-185.27 1.286-62.76 14.964-125.148 40.134-182.206 25.088-57.1 61.476-108.828 106.11-151.548 44.61-42.754 97.472-76.504 154.614-98.72 57.118-22.304 118.446-32.902 179.142-31.526 60.708 1.29 120.962 14.554 176.076 38.914 55.15 24.282 105.116 59.48 146.366 102.644 41.282 43.14 73.844 94.236 95.254 149.43 13.034 33.458 21.88 68.4 26.542 103.798 1.246-0.072 2.498-0.12 3.762-0.12 35.346 0 64 28.652 64 64 0 1.796-0.094 3.572-0.238 5.332h0.238zM922.306 278.052c-23.472-53.202-57.484-101.4-99.178-141.18-41.67-39.81-91-71.186-144.244-91.79-53.228-20.678-110.29-30.452-166.884-29.082-56.604 1.298-112.596 13.736-163.82 36.474-51.25 22.666-97.684 55.49-135.994 95.712-38.338 40.198-68.528 87.764-88.322 139.058-19.87 51.284-29.228 106.214-27.864 160.756 1.302 54.552 13.328 108.412 35.254 157.69 21.858 49.3 53.498 93.97 92.246 130.81 38.73 36.868 84.53 65.87 133.874 84.856 49.338 19.060 102.136 28.006 154.626 26.644 52.5-1.306 104.228-12.918 151.562-34.034 47.352-21.050 90.256-51.502 125.624-88.782 35.396-37.258 63.21-81.294 81.39-128.688 18.248-47.392 26.782-98.058 25.424-148.496h0.238c-0.144-1.76-0.238-3.536-0.238-5.332 0-33.012 24.992-60.174 57.086-63.624-6.224-34.822-16.53-68.818-30.78-100.992z" />
<glyph unicode="&#xea94;" glyph-name="feed2" d="M136.294 209.070c-75.196 0-136.292-61.334-136.292-136.076 0-75.154 61.1-135.802 136.292-135.802 75.466 0 136.494 60.648 136.494 135.802-0.002 74.742-61.024 136.076-136.494 136.076zM0.156 612.070v-196.258c127.784 0 247.958-49.972 338.458-140.512 90.384-90.318 140.282-211.036 140.282-339.3h197.122c-0.002 372.82-303.282 676.070-675.862 676.070zM0.388 960v-196.356c455.782 0 826.756-371.334 826.756-827.644h196.856c0 564.47-459.254 1024-1023.612 1024z" />
<glyph unicode="&#xea97;" glyph-name="youtube" d="M832 832h-640c-105.6 0-192-86.4-192-192v-384c0-105.6 86.4-192 192-192h640c105.6 0 192 86.4 192 192v384c0 105.6-86.4 192-192 192zM384 192v512l320-256-320-256z" />
</font>
</defs>
</svg>
